<?xml version="1.0" encoding="utf-8"?>
<!-- Generator: Adobe Illustrator 25.2.1, SVG Export Plug-In . SVG Version: 6.00 Build 0)  -->
<svg version="1.1" id="Layer_1" xmlns="http://www.w3.org/2000/svg" xmlns:xlink="http://www.w3.org/1999/xlink" x="0px" y="0px"
	 viewBox="0 0 271.66 178.72" style="enable-background:new 0 0 271.66 178.72;" xml:space="preserve">
<style type="text/css">
	.st0{fill:#A2DDF4;}
	.st1{fill:#6CCCF4;}
	.st2{fill:#52A9DE;}
	.st3{fill:#3965B0;}
</style>
<g>
	<path class="st0" d="M73.9,30.86c-39.76,0-72,32.24-72,72c0,21.49,9.43,40.76,24.36,53.95L96.96,34.66
		C89.72,32.21,81.97,30.86,73.9,30.86z"/>
	<path class="st1" d="M146.99,3.86c-21.66,0-40.33,12.76-48.94,31.16c-0.36-0.13-0.73-0.24-1.09-0.36L26.27,156.81
		c12.16,10.74,27.97,17.45,45.34,17.99v0.06h23.23l90-155.51C175.09,9.78,161.73,3.86,146.99,3.86z"/>
	<path class="st2" d="M238.12,63.8c-7.63-3.8-16.2-5.94-25.26-5.94c-4.08,0-8.06,0.44-11.9,1.26c0.01-0.42,0.03-0.84,0.03-1.26
		c0-15.08-6.19-28.71-16.16-38.51l-90,155.51h79.01L238.12,63.8z"/>
	<path class="st3" d="M212.35,174.86v-0.01c0.17,0,0.34,0.01,0.51,0.01c31.76,0,57.51-26.19,57.51-58.5
		c0-23.09-13.15-43.05-32.25-52.56l-64.28,111.06H212.35z"/>
</g>
</svg>
